<svg xmlns="http://www.w3.org/2000/svg" viewBox="0 0 42.46 48.12"><defs><style>.mbug-cls-1{fill:#ffffff;}.mbug-cls-2{fill:#ffffff;}.mbug-cls-3{fill:#ffffff;}</style></defs><title>MoleculaBug</title><g id="Layer_2" data-name="Layer 2"><g id="Layer_1-2" data-name="Layer 1"><g id="art"><path class="mbug-cls-1" d="M22.46.32a2.38,2.38,0,1,0-2.38,4.13L37.7,14.65V35a2.38,2.38,0,0,0,4.76,0V11.9Z"/><path class="mbug-cls-2" d="M9.78,6.62a2.37,2.37,0,0,0,.85,3.24h0L28.27,20.08V40.45a2.39,2.39,0,0,0,4.77,0V17.33L13,5.75A2.39,2.39,0,0,0,9.78,6.62Z"/><path class="mbug-cls-3" d="M.32,12.09A2.35,2.35,0,0,0,0,13.22V35a2.4,2.4,0,0,0,4.8,0V17.43l4.62,2.68V40.47a2.38,2.38,0,0,0,4.76,0V22.87l4.66,2.7V45.89a2.39,2.39,0,0,0,4.77,0V22.82l-20-11.6a2.38,2.38,0,0,0-3.27.84Z"/></g></g></g></svg>
