<?xml version="1.0" encoding="UTF-8"?><svg id="a" xmlns="http://www.w3.org/2000/svg" xmlns:xlink="http://www.w3.org/1999/xlink" viewBox="0 0 298.78 171.89"><defs><style>.f{fill:url(#e);}.g{fill:url(#d);}.h{fill:url(#c);}.i{fill:url(#b);}</style><linearGradient id="b" x1="142.48" y1=".62" x2="155.92" y2=".62" gradientTransform="matrix(1, 0, 0, 1, 0, 0)" gradientUnits="userSpaceOnUse"><stop offset="0" stop-color="#565656"/><stop offset="1" stop-color="#2484c6" stop-opacity="0"/></linearGradient><linearGradient id="c" x1="156.04" y1="3.5" x2="163.68" y2="3.5" xlink:href="#b"/><linearGradient id="d" x1="221.17" y1="164.34" x2="83.94" y2="85.11" gradientTransform="matrix(1, 0, 0, 1, 0, 0)" gradientUnits="userSpaceOnUse"><stop offset="0" stop-color="#78e5c7"/><stop offset=".36" stop-color="#4e8eaf"/><stop offset="1" stop-color="#2b0459"/></linearGradient><linearGradient id="e" x1="292.37" y1="164.77" x2="261.45" y2="133.85" gradientTransform="matrix(1, 0, 0, 1, 0, 0)" gradientUnits="userSpaceOnUse"><stop offset=".17" stop-color="#78e5c7"/><stop offset=".34" stop-color="#72d9c3"/><stop offset=".64" stop-color="#63bbbb"/><stop offset="1" stop-color="#4e8eaf"/></linearGradient></defs><path class="i" d="M155.92,1.24c-1.76-.5-3.74-.81-5.96-.93-.61-.05-1.24-.07-1.87-.06-.22,0-.44,.01-.66,.02-1.76,.03-3.41,.21-4.95,.55C144.39,.29,146.38,.01,148.45,0c2.61-.01,5.13,.43,7.47,1.24Z"/><path class="h" d="M163.68,5.73c-2.21-1.95-4.79-3.48-7.64-4.46,3.21,.92,5.7,2.45,7.64,4.46Z"/><path class="g" d="M234.19,85.01c.04,12.64-10.18,22.91-22.82,22.94-6.47,.02-12.34-2.66-16.51-6.97-.38-.4-.75-.82-1.11-1.23-4.48-5.05-3.6-13.98-4.09-20.76v-.03l-.04-.25-.11-.75h0l-.04-.25-.13-.67v-.07l-.02-.05-.03-.2-.1-.48-.06-.25-.05-.24-.06-.25-.05-.24-.06-.24-.03-.14-.03-.11-.06-.24-.12-.48-.13-.48-.14-.48-.06-.21v-.02l-.08-.24-.07-.23-.08-.24-.15-.47-.07-.23-.08-.23-.08-.23-.08-.24-.09-.23-.08-.23-.09-.23-.09-.23-.08-.23-.09-.23-.09-.22-.19-.45-.05-.12-.05-.12-.05-.12-.05-.11-.05-.12-.02-.04-.03-.08-.05-.12-.16-.34-.05-.11-.05-.12c-1.66-3.61-3.83-6.95-6.41-9.92l-.48-.54-.04-.04c-6.48-7.12-14.71-11.67-24.18-13.19h0c-4.34,.79-9.23,.58-13.34,.87h-.02l-.25,.05-.75,.11h0l-.24,.04-.67,.12h-.07l-.06,.03-.19,.03-.49,.1-.24,.06-.25,.05-.24,.05-.24,.06-.24,.05-.14,.04-.11,.02-.24,.07-.48,.12h0l-.47,.13-.24,.07-.24,.06-.22,.07h0l-.24,.07-.23,.08-.24,.07-.47,.15-.23,.08-.24,.08-.23,.08-.23,.08-.23,.09-.23,.08-.23,.08-.23,.09-.23,.09-.23,.09-.23,.09-.45,.19-.12,.05-.11,.04-.12,.06-.12,.05-.11,.05h-.05l-.07,.05-.12,.05-.34,.16-.12,.05-.11,.05c-3.62,1.66-6.95,3.83-9.92,6.4l-.54,.49-.04,.03c-6.82,6.21-11.27,14.01-12.98,22.97,.62,2.01,.96,4.24,1,6.67,0,.22,0,.44,0,.66,0,.63,0,1.25-.06,1.86-.02,.41-.05,.8-.08,1.19,.08,.65,.15,1.29,.22,1.95v.05l.09,.73c.46,3.28,1.19,6.11,2.34,9.21l.03,.08,.09,.22,.15,.38,.02,.06v.04l.09,.18c3.08,8.71,9.3,15.94,17.3,20.34,4.7,2.59,10.39,4.16,16.04,4.69,11.78,1.1,18.42-.51,24.94,10.8,1.94,3.37,3.09,7.27,3.1,11.44,.04,12.64-10.18,22.91-22.81,22.94-6.47,.02-12.34-2.66-16.51-6.98-.38-.39-.74-.82-1.11-1.22-4.48-5.05-3.6-13.98-4.09-20.76v-.03l-.04-.25-.11-.75h0l-.04-.25-.13-.67v-.07l-.02-.06-.03-.19-.1-.48-.06-.25-.05-.24-.06-.25-.05-.24-.06-.24-.03-.14-.03-.11-.18-.72h0l-.13-.48-.07-.24-.07-.24-.06-.22h0l-.07-.25-.07-.23-.08-.24-.15-.47-.07-.23-.08-.23-.08-.24-.08-.23-.09-.23-.08-.23-.09-.23-.09-.23-.08-.23-.09-.23-.09-.22-.19-.46-.05-.11-.05-.12-.1-.24-.05-.11-.02-.04-.03-.08-.05-.12-.16-.34-.05-.12-.05-.11c-1.66-3.61-3.83-6.95-6.41-9.92l-.48-.54-.04-.04c-6.73-7.39-15.33-12-25.25-13.34-2.14,.8-4.45,1.25-6.86,1.3-1.38-.08-2.72-.24-4-.46l-.6,.07c-3.28,.46-6.11,1.19-9.21,2.34l-.08,.03-.22,.09-.38,.15-.06,.02h-.04l-.18,.09c-8.71,3.08-15.94,9.3-20.34,17.3-2.58,4.7-4.16,10.39-4.69,16.04-1.1,11.78,.52,18.42-10.8,24.94-3.37,1.94-7.27,3.09-11.44,3.1C10.32,171.93,.04,161.71,0,149.07c0-6.47,2.67-12.34,6.98-16.51,.4-.38,.82-.74,1.22-1.11,5.06-4.48,13.98-3.6,20.77-4.09h.03l.25-.04,.74-.11h.02l.23-.04,.67-.13h.07l.06-.02,.19-.03,.49-.1,.24-.06,.25-.05,.24-.06,.24-.05,.25-.06,.14-.03,.1-.03,.24-.06,.24-.06,.24-.06h0l.47-.13,.48-.14,.22-.06h0l.48-.15,.23-.08,.47-.15,.23-.07,.24-.08,.23-.08,.23-.08,.23-.09,.23-.08,.23-.09,.23-.09,.23-.08,.23-.09,.23-.09,.45-.19,.12-.05,.11-.05,.12-.05,.12-.05,.12-.05,.04-.02,.07-.03,.12-.05,.35-.16,.11-.05,.12-.05c3.61-1.66,6.94-3.83,9.91-6.41l.55-.48,.04-.04c6.82-6.21,11.27-14.03,12.97-23.01-.61-2-.95-4.21-.99-6.63,0-.21-.02-.43-.02-.65,0-.63,0-1.25,.06-1.87,.32-6.25,2.23-10.56,5.29-13.55,3.48-4.7,8.87-7.55,16.16-7.66,.22,0,.44-.02,.66-.02,.63,0,1.25,0,1.86,.06,1.24,.06,2.41,.19,3.5,.38,3.19-.45,5.98-1.18,9-2.3l.08-.03,.22-.09,.38-.15,.06-.02,.04-.02,.18-.07c8.71-3.09,15.94-9.3,20.34-17.3,2.58-4.71,4.16-10.4,4.69-16.05,.96-10.31-.16-16.67,7.13-22.47,.02,0,.04-.03,.05-.04,2.4-2.28,5.41-3.9,9.04-4.69,.03,0,.05-.02,.08-.02,1.53-.34,3.18-.52,4.93-.55,.22,0,.44-.02,.66-.02,.63,0,1.25,0,1.86,.06,2.21,.12,4.18,.43,5.94,.93,.04,0,.08,.02,.12,.03,2.84,.98,5.41,2.5,7.61,4.44h0c4.74,4.18,7.75,10.3,7.77,17.12,0,1.8-.2,3.56-.6,5.24,.46,3.07,1.17,5.78,2.26,8.71l.03,.08,.09,.22,.15,.38,.02,.07v.03l.09,.19c3.08,8.7,9.3,15.93,17.3,20.33,4.7,2.59,10.39,4.16,16.04,4.69,11.78,1.1,18.42-.51,24.94,10.8,1.94,3.37,3.09,7.27,3.1,11.44Z"/><path class="f" d="M255.05,149.54c.13,12.08,10.03,21.76,22.1,21.63,12.08-.13,21.76-10.03,21.63-22.1-.13-12.08-10.02-21.76-22.1-21.63-12.07,.13-21.76,10.03-21.63,22.1h0Z"/></svg>