<?xml version="1.0" encoding="UTF-8"?>
<svg viewBox="0 0 276 313" version="1.1" xmlns="http://www.w3.org/2000/svg" xmlns:xlink="http://www.w3.org/1999/xlink">
    <defs>
        <polygon id="path-1" points="0 0.35 275.231 0.35 275.231 312.94 0 312.94"></polygon>
    </defs>
    <g id="Group-3">
        <mask id="mask-2" fill="white">
            <use xlink:href="#path-1"></use>
        </mask>
        <g id="Clip-2"></g>
        <path d="M275.231,86.005 C275.231,81.175 271.809,75.246 267.625,72.831 L145.222,2.162 C141.038,-0.254 134.193,-0.254 130.01,2.162 L7.606,72.831 C3.423,75.246 0,81.175 0,86.005 L0,227.345 C0,232.175 3.423,238.103 7.606,240.518 L130.01,311.188 C134.193,313.603 141.038,313.603 145.222,311.188 L267.625,240.518 C271.809,238.103 275.231,232.175 275.231,227.345 L275.231,86.005" id="Fill-1" fill="#084E83" mask="url(#mask-2)"></path>
    </g>
    <path d="M143.926,42.423 C138.489,39.277 131.526,41.13 128.376,46.569 C125.226,52.008 127.082,58.97 132.52,62.119 L216.669,110.849 L216.669,208.127 C216.669,214.412 221.764,219.507 228.049,219.507 C234.334,219.507 239.429,214.412 239.429,208.127 L239.429,97.728 L143.926,42.423" id="Fill-4" fill="#C3D4DD"></path>
    <path d="M83.364,72.494 C80.213,77.933 82.07,84.895 87.508,88.044 L171.657,136.774 L171.657,234.053 C171.657,240.338 176.751,245.433 183.036,245.433 C189.321,245.433 194.416,240.338 194.416,234.053 L194.416,123.653 L98.913,68.349 C93.477,65.202 86.513,67.055 83.364,72.494" id="Fill-5" fill="#48B5CD"></path>
    <path d="M38.185,98.634 C37.203,100.33 36.708,102.173 36.656,104.003 C36.633,105.008 36.819,208.157 36.819,208.157 C36.819,214.442 41.913,219.537 48.199,219.537 C54.484,219.537 59.578,214.442 59.578,208.157 L59.578,124.13 L81.632,136.915 L81.632,234.127 C81.632,240.412 86.727,245.507 93.012,245.507 C99.297,245.507 104.392,240.412 104.392,234.127 L104.392,150.11 L126.645,163.011 L126.645,260.017 C126.645,266.301 131.739,271.396 138.024,271.396 C144.309,271.396 149.404,266.301 149.404,260.017 L149.404,149.846 L53.735,94.489 C48.299,91.342 41.334,93.196 38.185,98.634" id="Fill-6" fill="#FFFFFF"></path>
</svg>
