<?xml version="1.0" encoding="UTF-8"?><svg id="a" xmlns="http://www.w3.org/2000/svg" xmlns:xlink="http://www.w3.org/1999/xlink" viewBox="0 0 697.42 98.75"><defs><style>.f{fill:url(#e);}.g{fill:url(#d);}.h{fill:url(#c);}.i{fill:url(#b);}.j{fill:#2a1064;}</style><linearGradient id="b" x1="81.86" y1=".36" x2="89.58" y2=".36" gradientTransform="matrix(1, 0, 0, 1, 0, 0)" gradientUnits="userSpaceOnUse"><stop offset="0" stop-color="#565656"/><stop offset="1" stop-color="#2484c6" stop-opacity="0"/></linearGradient><linearGradient id="c" x1="89.65" y1="2.01" x2="94.04" y2="2.01" xlink:href="#b"/><linearGradient id="d" x1="127.06" y1="94.41" x2="48.23" y2="48.9" gradientTransform="matrix(1, 0, 0, 1, 0, 0)" gradientUnits="userSpaceOnUse"><stop offset="0" stop-color="#78e5c7"/><stop offset=".36" stop-color="#4e8eaf"/><stop offset="1" stop-color="#2b0459"/></linearGradient><linearGradient id="e" x1="167.97" y1="94.66" x2="150.21" y2="76.9" gradientTransform="matrix(1, 0, 0, 1, 0, 0)" gradientUnits="userSpaceOnUse"><stop offset=".17" stop-color="#78e5c7"/><stop offset=".34" stop-color="#72d9c3"/><stop offset=".64" stop-color="#63bbbb"/><stop offset="1" stop-color="#4e8eaf"/></linearGradient></defs><g><path class="j" d="M213.31,19h39.13v7.6h-30.84v18.83h25.66v7.51h-25.66v26.52h-8.29V19Z"/><path class="j" d="M266.78,58.04v10.11c0,3.28,1.38,4.66,4.66,4.66h11.66c3.28,0,4.66-1.38,4.66-4.66v-3.46h7.86v3.2c0,7.86-3.71,11.57-11.57,11.57h-13.56c-7.86,0-11.57-3.71-11.57-11.57v-23.49c0-7.86,3.71-11.57,11.57-11.57h13.56c7.86,0,11.57,3.71,11.57,11.57v13.64h-28.85Zm0-13.91v8.03h20.99v-8.03c0-3.28-1.29-4.66-4.66-4.66h-11.66c-3.28,0-4.66,1.38-4.66,4.66Z"/><path class="j" d="M305.13,66.16c0-9.76,4.06-12.7,11.84-13.56,4.15-.43,10.37-1.04,17.36-1.29v-7.08c0-3.37-1.29-4.66-4.66-4.66h-10.45c-3.37,0-4.66,1.29-4.66,4.66v1.73h-7.86v-1.55c0-7.86,3.71-11.57,11.57-11.57h12.35c7.86,0,11.57,3.71,11.57,11.57v35.06h-7.86v-6.65c-3.63,4.49-7.51,7-15.98,7-9.5,0-13.22-3.97-13.22-13.64h0Zm29.19,1.81v-11.49l-16.33,2.16c-3.63,.52-5.01,1.55-5.01,7.08s1.29,7.26,6.22,7.26c7,0,10.53-1.9,15.11-5.01h0Z"/><path class="j" d="M356.52,67.89v-28.42h-6.91v-6.65h7v-11.22h7.77v11.22h11.15v6.65h-11.06v28.5c0,3.28,1.29,4.66,4.66,4.66h6.39v6.82h-7.43c-7.86,0-11.57-3.71-11.57-11.57h0Z"/><path class="j" d="M384.07,68.24V32.82h7.86v35.15c0,3.46,1.29,4.75,6.04,4.75,6.82,0,10.37-1.55,14.95-4.66V32.82h7.95v46.64h-7.95v-6.48c-4.06,4.06-7.51,6.91-15.8,6.91-9.33,0-13.04-3.71-13.04-11.66h0Z"/><path class="j" d="M433.55,32.82h7.86v6.91c3.8-3.71,7.43-6.91,14.33-6.91h3.46v7.51h-4.15c-5.53,0-9.42,1.98-13.64,4.58v34.55h-7.86V32.82Z"/><path class="j" d="M473.46,58.04v10.11c0,3.28,1.38,4.66,4.66,4.66h11.66c3.28,0,4.66-1.38,4.66-4.66v-3.46h7.86v3.2c0,7.86-3.71,11.57-11.57,11.57h-13.56c-7.86,0-11.57-3.71-11.57-11.57v-23.49c0-7.86,3.71-11.57,11.57-11.57h13.56c7.86,0,11.57,3.71,11.57,11.57v13.64h-28.85Zm0-13.91v8.03h20.99v-8.03c0-3.28-1.29-4.66-4.66-4.66h-11.66c-3.28,0-4.66,1.38-4.66,4.66Z"/><path class="j" d="M515.09,19h30.06c8.2,0,12.09,3.89,12.09,12.09v8.29c0,4.75-2.07,7.6-5.62,9.15,4.23,1.47,6.31,4.49,6.31,9.24v9.59c0,8.2-3.89,12.09-12.09,12.09h-30.75V19h0Zm29.11,25.82c3.46,0,4.75-1.29,4.75-4.66v-8.89c0-3.46-1.29-4.75-4.75-4.75h-20.82v18.31h20.82Zm.69,27.12c3.46,0,4.75-1.29,4.75-4.75v-10.28c0-3.46-1.29-4.75-4.75-4.75h-21.51v19.78h21.51Z"/><path class="j" d="M567.61,66.16c0-9.76,4.06-12.7,11.84-13.56,4.15-.43,10.37-1.04,17.36-1.29v-7.08c0-3.37-1.29-4.66-4.66-4.66h-10.45c-3.37,0-4.66,1.29-4.66,4.66v1.73h-7.86v-1.55c0-7.86,3.71-11.57,11.57-11.57h12.35c7.86,0,11.57,3.71,11.57,11.57v35.06h-7.86v-6.65c-3.63,4.49-7.51,7-15.98,7-9.5,0-13.22-3.97-13.22-13.64h0Zm29.19,1.81v-11.49l-16.33,2.16c-3.63,.52-5.01,1.55-5.01,7.08s1.29,7.26,6.22,7.26c7,0,10.53-1.9,15.11-5.01h0Z"/><path class="j" d="M614.85,66.76v-1.82h7.69v1.98c0,4.49,1.38,5.87,4.66,5.87h11.4c3.37,0,4.66-1.38,4.66-6.73,0-4.93-1.21-5.7-4.4-6.22l-13.3-2.16c-7-1.21-10.11-3.8-10.11-11.66,0-9.5,3.71-13.22,11.57-13.22h11.4c7.86,0,11.57,3.71,11.57,12.18v1.55h-7.69v-1.82c0-3.89-1.29-5.27-4.66-5.27h-9.67c-3.37,0-4.66,1.38-4.66,6.04,0,4.23,1.21,5.01,4.4,5.53l13.3,2.16c7,1.21,10.11,3.8,10.11,12.35,0,10.19-3.71,13.91-11.57,13.91h-13.13c-7.86,0-11.57-3.71-11.57-12.7v.02Z"/><path class="j" d="M668.57,58.04v10.11c0,3.28,1.38,4.66,4.66,4.66h11.66c3.28,0,4.66-1.38,4.66-4.66v-3.46h7.86v3.2c0,7.86-3.71,11.57-11.57,11.57h-13.56c-7.86,0-11.57-3.71-11.57-11.57v-23.49c0-7.86,3.71-11.57,11.57-11.57h13.56c7.86,0,11.57,3.71,11.57,11.57v13.64h-28.85Zm0-13.91v8.03h20.99v-8.03c0-3.28-1.29-4.66-4.66-4.66h-11.66c-3.28,0-4.66,1.38-4.66,4.66Z"/></g><g><path class="i" d="M89.58,.71c-1.01-.29-2.15-.47-3.42-.53-.35-.03-.71-.04-1.07-.03-.13,0-.25,0-.38,.01-1.01,.02-1.96,.12-2.84,.32C82.95,.17,84.1,0,85.29,0c1.5,0,2.95,.25,4.29,.71Z"/><path class="h" d="M94.04,3.29c-1.27-1.12-2.75-2-4.39-2.56,1.84,.53,3.27,1.41,4.39,2.56Z"/><path class="g" d="M134.55,48.84c.02,7.26-5.85,13.16-13.11,13.18-3.72,.01-7.09-1.53-9.49-4-.22-.23-.43-.47-.64-.71-2.57-2.9-2.07-8.03-2.35-11.93v-.02l-.02-.14-.06-.43h0l-.02-.14-.07-.38v-.07l-.03-.11-.06-.27-.03-.14-.03-.14-.03-.14-.03-.14-.03-.14-.02-.08-.02-.06-.03-.14-.07-.27-.07-.27-.08-.27-.03-.12h0l-.04-.15-.04-.13-.05-.14-.09-.27-.04-.13-.05-.13-.05-.13-.05-.14-.05-.13-.05-.13-.05-.13-.05-.13-.05-.13-.05-.13-.05-.13-.11-.26-.03-.07-.03-.07-.03-.07-.03-.06-.03-.07v-.02l-.03-.05-.03-.07-.09-.19-.03-.06-.03-.07c-.96-2.08-2.2-3.99-3.68-5.7l-.27-.31-.02-.02c-3.72-4.09-8.45-6.71-13.89-7.57h0c-2.49,.45-5.3,.33-7.67,.5h-.01l-.14,.03-.43,.06h0l-.14,.02-.38,.07h-.04l-.03,.02-.11,.02-.28,.06-.14,.03-.14,.03-.14,.03-.14,.03-.14,.03-.08,.02h-.06l-.14,.05-.27,.07h0l-.27,.07-.14,.04-.14,.03-.13,.04h0l-.14,.04-.13,.05-.14,.04-.27,.09-.13,.05-.14,.05-.13,.05-.13,.05-.13,.05-.13,.05-.13,.05-.13,.05-.13,.05-.13,.05-.13,.05-.26,.11-.07,.03-.06,.02-.07,.03-.07,.03-.06,.03h-.03l-.04,.03-.07,.03-.19,.09-.07,.03-.06,.03c-2.08,.96-3.99,2.2-5.7,3.68l-.31,.28-.02,.02c-3.92,3.57-6.48,8.05-7.45,13.2,.35,1.16,.55,2.44,.57,3.83,0,.13,0,.25,0,.38,0,.36,0,.72-.03,1.07-.01,.23-.03,.46-.05,.68,.05,.37,.09,.74,.13,1.12v.03l.05,.42c.26,1.88,.68,3.51,1.34,5.29l.02,.05,.05,.13,.09,.22v.03l.02,.02,.05,.1c1.77,5.01,5.34,9.16,9.94,11.68,2.7,1.49,5.97,2.39,9.22,2.69,6.77,.63,10.58-.29,14.33,6.21,1.12,1.93,1.77,4.18,1.78,6.57,.02,7.26-5.85,13.16-13.11,13.18-3.72,.01-7.09-1.53-9.49-4.01-.22-.22-.42-.47-.64-.7-2.57-2.9-2.07-8.03-2.35-11.93v-.02l-.02-.14-.06-.43h0l-.02-.14-.07-.38v-.07l-.03-.11-.06-.27-.03-.14-.03-.14-.03-.14-.03-.14-.03-.14-.02-.08-.02-.06-.1-.41h0l-.07-.27-.04-.14-.04-.14-.03-.13h0l-.04-.14-.04-.13-.05-.14-.09-.27-.04-.13-.05-.13-.05-.14-.05-.13-.05-.13-.05-.13-.05-.13-.05-.13-.05-.13-.05-.13-.05-.13-.11-.26-.03-.06-.03-.07-.06-.14-.03-.06v-.02l-.03-.05-.03-.07-.09-.19-.03-.07-.03-.06c-.96-2.08-2.2-3.99-3.68-5.7l-.27-.31-.02-.02c-3.87-4.25-8.81-6.89-14.51-7.67-1.23,.46-2.56,.72-3.94,.75-.8-.05-1.56-.14-2.3-.26l-.34,.04c-1.88,.26-3.51,.68-5.29,1.34l-.05,.02-.13,.05-.22,.09h-.03l-.02,.02-.1,.05c-5.01,1.77-9.16,5.34-11.68,9.94-1.48,2.7-2.39,5.97-2.69,9.22-.63,6.77,.3,10.58-6.21,14.33-1.93,1.12-4.18,1.77-6.57,1.78C5.93,98.77,.02,92.9,0,85.64c0-3.72,1.53-7.09,4.01-9.49,.23-.22,.47-.42,.7-.64,2.91-2.57,8.03-2.07,11.93-2.35h.02l.14-.02,.42-.06h.01l.13-.02,.38-.07h.07l.11-.03,.28-.06,.14-.03,.14-.03,.14-.03,.14-.03,.14-.03,.08-.02,.06-.02,.14-.03,.14-.03,.14-.03h0l.27-.07,.27-.08,.13-.03h0l.27-.09,.13-.05,.27-.09,.13-.04,.14-.05,.13-.05,.13-.05,.13-.05,.13-.05,.13-.05,.13-.05,.13-.05,.13-.05,.13-.05,.26-.11,.07-.03,.06-.03,.07-.03,.07-.03,.07-.03h.02l.04-.03,.07-.03,.2-.09,.06-.03,.07-.03c2.08-.96,3.99-2.2,5.69-3.68l.31-.27,.02-.02c3.92-3.57,6.48-8.06,7.45-13.22-.35-1.15-.54-2.42-.57-3.81,0-.12-.01-.25-.01-.37,0-.36,0-.72,.03-1.08,.18-3.59,1.28-6.06,3.04-7.79,2-2.7,5.1-4.34,9.29-4.4,.13,0,.25-.01,.38-.01,.36,0,.72,0,1.07,.03,.72,.03,1.38,.11,2.01,.22,1.83-.26,3.43-.68,5.17-1.32l.05-.02,.13-.05,.22-.09h.03l.02-.02,.1-.04c5.01-1.77,9.16-5.34,11.68-9.94,1.48-2.71,2.39-5.97,2.69-9.22,.55-5.92-.09-9.58,4.1-12.91,.01,0,.02-.02,.03-.02,1.38-1.31,3.11-2.24,5.19-2.69,.02,0,.03-.01,.05-.01,.88-.19,1.83-.3,2.83-.31,.13,0,.25-.01,.38-.01,.36,0,.72,0,1.07,.03,1.27,.07,2.4,.25,3.41,.53,.02,0,.05,.01,.07,.02,1.63,.56,3.11,1.44,4.37,2.55h0c2.72,2.4,4.45,5.92,4.46,9.83,0,1.04-.11,2.04-.34,3.01,.26,1.76,.67,3.32,1.3,5.01l.02,.05,.05,.13,.09,.22v.04l.02,.02,.05,.11c1.77,5,5.34,9.15,9.94,11.68,2.7,1.49,5.97,2.39,9.22,2.69,6.77,.63,10.58-.29,14.33,6.21,1.12,1.93,1.77,4.18,1.78,6.57Z"/><path class="f" d="M146.53,85.91c.07,6.94,5.76,12.5,12.7,12.43,6.94-.08,12.5-5.76,12.43-12.7-.07-6.94-5.76-12.5-12.7-12.43-6.94,.07-12.5,5.76-12.43,12.7h0Z"/></g></svg>