<svg xmlns="http://www.w3.org/2000/svg" viewBox="0 0 265.39 48.27"><defs><style>.molecula-1{fill:#004379;}.molecula-2{fill:#c3d3dc;}.molecula-3{fill:#48b5cd;}</style></defs><title>Molecula Logo</title><g id="Layer_2" data-name="Layer 2"><g id="art"><path class="molecula-1" d="M55.15,13.89a2.18,2.18,0,0,1,2.19-2.2h.46a2.29,2.29,0,0,1,2,1.17l7.51,11.76,7.54-11.8a2.2,2.2,0,0,1,2-1.13h.46a2.18,2.18,0,0,1,2.19,2.2V34.64a2.15,2.15,0,0,1-2.19,2.16,2.19,2.19,0,0,1-2.16-2.16V19.77l-6.06,9.1a2,2,0,0,1-3.65,0l-6-9V34.68a2.11,2.11,0,0,1-2.16,2.12,2.08,2.08,0,0,1-2.12-2.12Z"/><path class="molecula-1" d="M85.68,24.3v-.07a13,13,0,0,1,25.92-.07v.07a13,13,0,0,1-25.92.07Zm21.35,0v-.07c0-4.82-3.5-8.82-8.42-8.82s-8.36,3.93-8.36,8.75v.07A8.46,8.46,0,0,0,98.68,33C103.6,33,107,29.12,107,24.3Z"/><path class="molecula-1" d="M117.77,13.82a2.18,2.18,0,0,1,4.35,0V32.66h11.23a2,2,0,0,1,0,4H120a2.16,2.16,0,0,1-2.19-2.2Z"/><path class="molecula-1" d="M140.58,34.43V14a2.16,2.16,0,0,1,2.19-2.2h14.42a2,2,0,0,1,1.95,1.95,2,2,0,0,1-1.95,2H144.93v6.44h10.66a2,2,0,0,1,1.95,2,1.93,1.93,0,0,1-1.95,1.91H144.93v6.66h12.43a1.95,1.95,0,0,1,0,3.9H142.77A2.16,2.16,0,0,1,140.58,34.43Z"/><path class="molecula-1" d="M164.09,24.3v-.07a12.55,12.55,0,0,1,12.79-12.82,13,13,0,0,1,8.5,2.8,2.16,2.16,0,0,1,.85,1.73,2.17,2.17,0,0,1-3.47,1.7,9,9,0,0,0-5.92-2.23c-4.71,0-8.18,3.9-8.18,8.75v.07c0,4.85,3.44,8.78,8.18,8.78a8.87,8.87,0,0,0,6.2-2.37,2,2,0,0,1,1.31-.5,2,2,0,0,1,1.35,3.58,12.64,12.64,0,0,1-9,3.33A12.47,12.47,0,0,1,164.09,24.3Z"/><path class="molecula-1" d="M191.83,26.11V13.82a2.18,2.18,0,0,1,4.35,0V25.93c0,4.6,2.38,7,6.27,7s6.24-2.3,6.24-6.87V13.82a2.18,2.18,0,0,1,4.35,0V25.89C213,33.3,208.86,37,202.38,37S191.83,33.3,191.83,26.11Z"/><path class="molecula-1" d="M219.91,13.82a2.18,2.18,0,0,1,4.36,0V32.66H235.5a2,2,0,0,1,0,4H222.11a2.17,2.17,0,0,1-2.2-2.2Z"/><path class="molecula-1" d="M241.31,33.79l9.21-20.54a2.75,2.75,0,0,1,2.62-1.77h.21a2.7,2.7,0,0,1,2.58,1.77l9.21,20.54a1.88,1.88,0,0,1,.25.92,2,2,0,0,1-2.05,2.09,2.25,2.25,0,0,1-2.13-1.52l-2-4.64h-12l-2.09,4.78a2.09,2.09,0,0,1-2,1.38,2,2,0,0,1-2-2A2.22,2.22,0,0,1,241.31,33.79Zm16.22-7-4.36-10-4.36,10Z"/><path class="molecula-2" d="M22.46.32a2.38,2.38,0,0,0-2.38,4.13L37.7,14.65V35a2.38,2.38,0,0,0,4.76,0V11.9Z"/><path class="molecula-3" d="M9.78,6.62a2.37,2.37,0,0,0,.87,3.25L28.27,20.08V40.45a2.39,2.39,0,0,0,4.77,0V17.33L13,5.75A2.39,2.39,0,0,0,9.78,6.62Z"/><path class="molecula-1" d="M.32,12.09A2.33,2.33,0,0,0,0,13.22C0,13.43,0,35,0,35A2.39,2.39,0,0,0,4.8,35V17.43l4.62,2.68V40.47a2.38,2.38,0,0,0,4.76,0V22.87l4.66,2.7V45.89a2.39,2.39,0,0,0,4.77,0V22.82l-20-11.6A2.39,2.39,0,0,0,.32,12.09Z"/></g></g></svg>
