<svg xmlns="http://www.w3.org/2000/svg" viewBox="0 0 50 50">
  <style>.m-blue { fill: #004379; } @media (prefers-color-scheme: dark) { .m-blue { fill: #ffffff; } }
  </style>
  <path d="M25.46 1.32a2.38 2.38 0 10-2.38 4.13l17.62 10.2V36a2.38 2.38 0 004.76 0V12.9z" fill="#c3d3dc"/>
  <path d="M12.78 7.62a2.37 2.37 0 00.85 3.24l17.64 10.22v20.37a2.39 2.39 0 004.77 0V18.33L16 6.75a2.4 2.4 0 00-3.22.87z" fill="#48b5cd"/>
  <path d="M3.32 13.09A2.35 2.35 0 003 14.22V36a2.4 2.4 0 004.8 0V18.43l4.62 2.68v20.36a2.38 2.38 0 004.76 0v-17.6l4.66 2.7v20.32a2.39 2.39 0 004.77 0V23.82l-20-11.6a2.39 2.39 0 00-3.27.84z" class="m-blue"/>
</svg>
